<?xml version="1.0" encoding="UTF-8"?>
<svg xmlns="http://www.w3.org/2000/svg" xmlns:xlink="http://www.w3.org/1999/xlink" viewBox="0 0 24 24" width="24px" height="24px">
<g id="surface61811787">
<path style=" stroke:none;fill-rule:nonzero;fill:rgb(54.901963%,47.058824%,31.764707%);fill-opacity:1;" d="M 8.019531 1.015625 C 7.277344 0.960938 6.539062 1.085938 5.894531 1.460938 C 5.035156 1.957031 4.472656 2.8125 4.183594 3.78125 C 3.894531 4.746094 3.84375 5.84375 3.964844 7.042969 C 3.980469 7.179688 4.003906 7.324219 4.023438 7.464844 C 3.953125 7.496094 3.878906 7.523438 3.808594 7.554688 C 2.726562 8.046875 1.8125 8.640625 1.132812 9.375 C 0.453125 10.105469 0 11.011719 0 12 C 0 12.988281 0.453125 13.894531 1.132812 14.628906 C 1.8125 15.359375 2.726562 15.953125 3.808594 16.445312 C 3.878906 16.476562 3.953125 16.503906 4.023438 16.535156 C 4.003906 16.675781 3.980469 16.820312 3.964844 16.957031 C 3.84375 18.15625 3.894531 19.253906 4.183594 20.222656 C 4.472656 21.1875 5.03125 22.042969 5.890625 22.542969 C 6.753906 23.039062 7.773438 23.097656 8.753906 22.871094 C 9.738281 22.640625 10.71875 22.136719 11.695312 21.4375 C 11.796875 21.363281 11.898438 21.277344 11.996094 21.203125 C 12.101562 21.277344 12.199219 21.363281 12.300781 21.4375 C 13.28125 22.136719 14.261719 22.640625 15.242188 22.871094 C 16.222656 23.101562 17.246094 23.039062 18.105469 22.542969 C 18.964844 22.042969 19.527344 21.1875 19.816406 20.222656 C 20.105469 19.253906 20.15625 18.15625 20.035156 16.957031 C 20.019531 16.820312 19.992188 16.675781 19.976562 16.535156 C 20.046875 16.503906 20.121094 16.476562 20.191406 16.445312 C 21.273438 15.953125 22.1875 15.359375 22.867188 14.628906 C 23.546875 13.894531 24 12.988281 24 12 C 24 11.011719 23.546875 10.105469 22.867188 9.375 C 22.1875 8.640625 21.273438 8.046875 20.191406 7.554688 C 20.121094 7.523438 20.046875 7.496094 19.976562 7.464844 C 19.996094 7.324219 20.019531 7.179688 20.035156 7.042969 C 20.15625 5.84375 20.105469 4.746094 19.816406 3.78125 C 19.527344 2.8125 18.96875 1.957031 18.109375 1.460938 C 17.246094 0.960938 16.226562 0.902344 15.246094 1.132812 C 14.261719 1.359375 13.28125 1.863281 12.304688 2.566406 C 12.203125 2.636719 12.101562 2.722656 12 2.800781 C 11.898438 2.722656 11.796875 2.636719 11.699219 2.566406 C 10.71875 1.863281 9.738281 1.359375 8.757812 1.132812 C 8.511719 1.074219 8.265625 1.035156 8.019531 1.015625 Z M 7.492188 3.003906 C 7.722656 2.984375 7.988281 3.003906 8.300781 3.078125 C 8.910156 3.222656 9.664062 3.582031 10.464844 4.144531 C 9.835938 4.765625 9.21875 5.460938 8.628906 6.226562 C 7.679688 6.359375 6.789062 6.550781 5.953125 6.785156 C 5.855469 5.800781 5.921875 4.960938 6.101562 4.351562 C 6.285156 3.738281 6.554688 3.386719 6.898438 3.1875 C 7.066406 3.089844 7.261719 3.027344 7.492188 3.003906 Z M 16.136719 3.003906 C 16.539062 2.96875 16.847656 3.042969 17.105469 3.1875 C 17.445312 3.386719 17.714844 3.738281 17.902344 4.351562 C 18.082031 4.960938 18.144531 5.800781 18.050781 6.785156 C 17.210938 6.550781 16.320312 6.359375 15.375 6.226562 C 14.78125 5.460938 14.167969 4.765625 13.539062 4.144531 C 14.335938 3.582031 15.089844 3.21875 15.699219 3.078125 C 15.855469 3.042969 16 3.019531 16.136719 3.003906 Z M 12 5.453125 C 12.179688 5.625 12.355469 5.820312 12.535156 6.011719 C 12.355469 6.007812 12.179688 6 12 6 C 11.820312 6 11.644531 6.007812 11.464844 6.011719 C 11.644531 5.820312 11.820312 5.625 12 5.453125 Z M 12 8 C 12.789062 8 13.546875 8.046875 14.285156 8.125 C 14.699219 8.707031 15.105469 9.324219 15.484375 9.980469 C 15.875 10.65625 16.21875 11.332031 16.519531 12 C 16.21875 12.667969 15.875 13.34375 15.484375 14.019531 C 15.105469 14.675781 14.699219 15.292969 14.285156 15.875 C 13.546875 15.953125 12.789062 16 12 16 C 11.210938 16 10.453125 15.953125 9.714844 15.875 C 9.300781 15.292969 8.894531 14.675781 8.515625 14.019531 C 8.125 13.34375 7.78125 12.667969 7.480469 12 C 7.78125 11.332031 8.125 10.65625 8.515625 9.980469 C 8.894531 9.324219 9.300781 8.707031 9.714844 8.125 C 10.453125 8.046875 11.210938 8 12 8 Z M 7.015625 8.597656 C 6.941406 8.722656 6.859375 8.847656 6.785156 8.980469 C 6.695312 9.132812 6.613281 9.289062 6.527344 9.445312 C 6.457031 9.21875 6.382812 8.988281 6.328125 8.769531 C 6.546875 8.703125 6.789062 8.652344 7.015625 8.597656 Z M 16.984375 8.597656 C 17.210938 8.65625 17.453125 8.703125 17.671875 8.769531 C 17.617188 8.988281 17.542969 9.21875 17.472656 9.445312 C 17.386719 9.289062 17.304688 9.132812 17.214844 8.980469 C 17.140625 8.847656 17.058594 8.726562 16.984375 8.597656 Z M 12 9 C 10.347656 9 9 10.347656 9 12 C 9 13.652344 10.347656 15 12 15 C 13.652344 15 15 13.652344 15 12 C 15 10.347656 13.652344 9 12 9 Z M 4.433594 9.476562 C 4.652344 10.296875 4.9375 11.136719 5.292969 12 C 4.9375 12.859375 4.652344 13.703125 4.433594 14.523438 C 3.625 14.132812 2.996094 13.695312 2.597656 13.265625 C 2.164062 12.800781 2 12.394531 2 12 C 2 11.605469 2.164062 11.199219 2.597656 10.734375 C 2.996094 10.304688 3.628906 9.863281 4.433594 9.476562 Z M 19.570312 9.476562 C 20.375 9.867188 21.003906 10.304688 21.40625 10.734375 C 21.835938 11.199219 22 11.605469 22 12 C 22 12.394531 21.835938 12.800781 21.40625 13.265625 C 21.003906 13.695312 20.371094 14.132812 19.566406 14.523438 C 19.347656 13.703125 19.0625 12.859375 18.710938 12 C 19.0625 11.140625 19.347656 10.296875 19.570312 9.476562 Z M 6.527344 14.554688 C 6.613281 14.710938 6.695312 14.867188 6.785156 15.019531 C 6.859375 15.152344 6.941406 15.273438 7.019531 15.402344 C 6.789062 15.34375 6.546875 15.296875 6.328125 15.234375 C 6.382812 15.011719 6.457031 14.78125 6.527344 14.554688 Z M 17.472656 14.554688 C 17.539062 14.78125 17.617188 15.011719 17.671875 15.230469 C 17.453125 15.296875 17.210938 15.347656 16.984375 15.402344 C 17.058594 15.277344 17.140625 15.152344 17.214844 15.019531 C 17.304688 14.867188 17.386719 14.710938 17.472656 14.554688 Z M 5.953125 17.214844 C 6.789062 17.449219 7.679688 17.640625 8.628906 17.769531 C 9.21875 18.539062 9.832031 19.234375 10.460938 19.855469 C 9.664062 20.417969 8.910156 20.78125 8.300781 20.921875 C 7.671875 21.070312 7.238281 21.007812 6.898438 20.8125 C 6.554688 20.613281 6.285156 20.261719 6.101562 19.648438 C 5.917969 19.039062 5.855469 18.199219 5.953125 17.214844 Z M 18.046875 17.214844 C 18.144531 18.199219 18.082031 19.042969 17.898438 19.648438 C 17.714844 20.265625 17.445312 20.613281 17.101562 20.808594 C 16.761719 21.007812 16.328125 21.070312 15.699219 20.921875 C 15.089844 20.777344 14.335938 20.417969 13.535156 19.855469 C 14.164062 19.234375 14.78125 18.539062 15.371094 17.769531 C 16.320312 17.640625 17.210938 17.449219 18.046875 17.210938 Z M 11.464844 17.988281 C 11.644531 17.992188 11.820312 18 12 18 C 12.179688 18 12.355469 17.992188 12.535156 17.988281 C 12.355469 18.179688 12.179688 18.375 12 18.546875 C 11.820312 18.375 11.644531 18.179688 11.464844 17.988281 Z M 11.464844 17.988281 "/>
</g>
</svg>
