<?xml version="1.0" encoding="UTF-8"?>
<svg xmlns="http://www.w3.org/2000/svg" xmlns:xlink="http://www.w3.org/1999/xlink" viewBox="0 0 24 24" width="24px" height="24px">
<g id="surface61794517">
<path style=" stroke:none;fill-rule:nonzero;fill:rgb(54.901963%,47.058824%,31.764707%);fill-opacity:1;" d="M 12 2 C 6.488281 2 2 6.488281 2 12 C 2 17.511719 6.488281 22 12 22 C 17.511719 22 22 17.511719 22 12 C 22 6.488281 17.511719 2 12 2 Z M 12 4 C 16.429688 4 20 7.570312 20 12 C 20 16.429688 16.429688 20 12 20 C 7.570312 20 4 16.429688 4 12 C 4 7.570312 7.570312 4 12 4 Z M 14.335938 6.007812 C 13.605469 5.96875 12.785156 6.082031 11.984375 6.371094 C 10.707031 6.820312 9.328125 7.53125 8.335938 8.460938 C 7.15625 9.566406 6.96875 10.527344 7.046875 10.929688 C 7.320312 12.34375 9.257812 13.269531 10.058594 13.957031 L 10.058594 13.960938 C 9.820312 14.078125 8.101562 14.945312 7.699219 15.839844 C 7.273438 16.777344 7.765625 17.453125 8.089844 17.542969 C 9.101562 17.824219 10.140625 17.316406 10.699219 16.488281 C 11.234375 15.683594 11.1875 14.648438 10.953125 14.132812 C 11.277344 14.046875 11.65625 14.011719 12.132812 14.066406 C 13.480469 14.222656 13.746094 15.066406 13.691406 15.417969 C 13.640625 15.769531 13.359375 15.964844 13.265625 16.023438 C 13.171875 16.082031 13.140625 16.101562 13.152344 16.144531 C 13.160156 16.207031 13.207031 16.207031 13.285156 16.191406 C 13.398438 16.171875 13.996094 15.90625 14.019531 15.257812 C 14.054688 14.429688 13.261719 13.503906 11.859375 13.53125 C 11.285156 13.539062 10.921875 13.59375 10.65625 13.691406 C 10.640625 13.667969 10.621094 13.648438 10.597656 13.628906 C 9.734375 12.703125 8.132812 12.046875 8.199219 10.808594 C 8.222656 10.355469 8.382812 9.164062 11.277344 7.722656 C 13.648438 6.539062 15.546875 6.863281 15.875 7.585938 C 16.34375 8.617188 14.859375 10.53125 12.394531 10.808594 C 11.457031 10.910156 10.964844 10.546875 10.84375 10.414062 C 10.710938 10.269531 10.691406 10.261719 10.644531 10.289062 C 10.566406 10.332031 10.617188 10.460938 10.644531 10.535156 C 10.71875 10.726562 11.019531 11.066406 11.535156 11.234375 C 11.988281 11.382812 13.089844 11.464844 14.421875 10.949219 C 15.914062 10.371094 17.078125 8.765625 16.734375 7.421875 C 16.519531 6.570312 15.554688 6.074219 14.335938 6.007812 Z M 10.390625 14.378906 C 10.5 14.792969 10.488281 15.175781 10.371094 15.527344 C 10.359375 15.566406 10.34375 15.605469 10.328125 15.640625 C 10.316406 15.679688 10.296875 15.71875 10.277344 15.753906 C 10.191406 15.9375 10.070312 16.113281 9.925781 16.269531 C 9.480469 16.757812 8.855469 16.941406 8.585938 16.785156 C 8.300781 16.621094 8.441406 15.933594 8.960938 15.386719 C 9.519531 14.796875 10.316406 14.417969 10.316406 14.417969 C 10.339844 14.40625 10.367188 14.390625 10.386719 14.378906 Z M 10.390625 14.378906 "/>
</g>
</svg>
